<svg xmlns="http://www.w3.org/2000/svg" width="27.817" height="26.305" viewBox="0 0 27.817 26.305"><defs><style>.a{fill:#415162;}</style></defs><path class="a" d="M25.7,22.077H24.258c-.011-.012-.021-.025-.033-.037l-7.861-7.861a.907.907,0,0,0-1.283,1.283L21.7,22.077H6.12l6.615-6.615a.907.907,0,0,0-1.283-1.283L3.592,22.04c-.012.012-.022.024-.033.037H2.117A2.119,2.119,0,0,0,0,24.193V25.4a2.119,2.119,0,0,0,1.952,2.11L3.69,37.944a2.713,2.713,0,0,0,2.684,2.274H21.708A2.735,2.735,0,0,0,24.4,37.882l1.481-10.37A2.119,2.119,0,0,0,27.817,25.4V24.193A2.119,2.119,0,0,0,25.7,22.077ZM26,25.4a.3.3,0,0,1-.3.3H16.63a.907.907,0,0,0,0,1.814h7.42L22.606,37.625a.912.912,0,0,1-.9.779H6.374a.9.9,0,0,1-.895-.758L3.792,27.519h7.4a.907.907,0,0,0,0-1.814H2.117a.3.3,0,0,1-.3-.3V24.193a.3.3,0,0,1,.3-.3H25.7a.3.3,0,0,1,.3.3Z" transform="translate(0 -13.913)"/><g transform="translate(7.553 15.293)"><g transform="translate(0 0)"><path class="a" d="M140.048,297.739a.918.918,0,0,0-.918.918v5.506a.918.918,0,1,0,1.835,0v-5.506A.918.918,0,0,0,140.048,297.739Z" transform="translate(-139.13 -297.739)"/></g></g><g transform="translate(12.991 15.293)"><g transform="translate(0 0)"><path class="a" d="M240.222,297.739a.918.918,0,0,0-.918.918v5.506a.918.918,0,1,0,1.835,0v-5.506A.918.918,0,0,0,240.222,297.739Z" transform="translate(-239.304 -297.739)"/></g></g><g transform="translate(18.429 15.293)"><g transform="translate(0 0)"><path class="a" d="M340.4,297.739a.918.918,0,0,0-.918.918v5.506a.918.918,0,1,0,1.835,0v-5.506A.918.918,0,0,0,340.4,297.739Z" transform="translate(-339.478 -297.739)"/></g></g></svg>