<svg xmlns="http://www.w3.org/2000/svg" width="23.68" height="28" viewBox="0 0 23.68 28"><defs><style>.a{fill:#415162;}</style></defs><g transform="translate(0.345)"><g transform="translate(-0.345)"><path class="a" d="M75.84,0C69.31,0,64,4.709,64,10.5c0,7.278,10.688,16.84,11.142,17.244a1.083,1.083,0,0,0,1.4,0c.454-.4,11.142-9.966,11.142-17.244C87.68,4.709,82.37,0,75.84,0Zm0,25.86c-2.356-2.236-9.867-9.8-9.867-15.36,0-4.825,4.426-8.75,9.867-8.75s9.867,3.925,9.867,8.75C85.707,16.054,78.2,23.623,75.84,25.86Z" transform="translate(-64)"/></g><g transform="translate(7.22 6.234)"><path class="a" d="M164.5,96a4.5,4.5,0,1,0,4.5,4.5A4.506,4.506,0,0,0,164.5,96Zm0,7.5a3,3,0,1,1,3-3A3,3,0,0,1,164.5,103.5Z" transform="translate(-160 -96)"/></g></g></svg>