<svg xmlns="http://www.w3.org/2000/svg" width="22.197" height="28" viewBox="0 0 22.197 28"><defs><style>.a{fill:#415162;}</style></defs><g transform="translate(-329.803 -126)"><g transform="translate(276.747 126)"><g transform="translate(54.832 3.9)"><g transform="translate(0)"><path class="a" d="M94.723,71.32a9.206,9.206,0,0,0-9.2,9.2v9.767h1.9V80.516a7.293,7.293,0,1,1,14.587,0v9.767h1.9V80.516A9.206,9.206,0,0,0,94.723,71.32Z" transform="translate(-85.527 -71.32)"/></g></g><g transform="translate(53.056 21.912)"><g transform="translate(0)"><path class="a" d="M74.3,400.67H54.007a.951.951,0,1,0,0,1.9H74.3a.951.951,0,1,0,0-1.9Z" transform="translate(-53.056 -400.67)"/></g></g><g transform="translate(61.11)"><g transform="translate(0)"><path class="a" d="M203.253,0a2.917,2.917,0,1,0,2.917,2.917A2.921,2.921,0,0,0,203.253,0Zm0,3.932a1.015,1.015,0,1,1,1.015-1.015A1.028,1.028,0,0,1,203.253,3.932Z" transform="translate(-200.336)"/></g></g><g transform="translate(60.603 22.863)"><g transform="translate(0)"><path class="a" d="M196.131,418.066v1.649a1.585,1.585,0,1,1-3.171,0v-1.649h-1.9v1.649a3.488,3.488,0,1,0,6.976,0v-1.649Z" transform="translate(-191.057 -418.066)"/></g></g></g></g></svg>